<svg width="36" height="36" viewBox="0 0 36 36" fill="none" xmlns="http://www.w3.org/2000/svg">
<path fill-rule="evenodd" clip-rule="evenodd" d="M14.1082 23.8779C7.06082 23.8779 1.04199 24.9431 1.04199 29.2111C1.04199 33.4773 7.02232 34.5828 14.1082 34.5828C21.1555 34.5828 27.1743 33.5158 27.1743 29.2496C27.1743 24.9834 21.194 23.8779 14.1082 23.8779Z" stroke="#F27F16" stroke-width="1.5" stroke-linecap="round" stroke-linejoin="round"/>
<path fill-rule="evenodd" clip-rule="evenodd" d="M14.1081 17.7908C18.7574 17.7908 22.4827 14.0637 22.4827 9.41617C22.4827 4.76684 18.7574 1.0415 14.1081 1.0415C9.46056 1.0415 5.7334 4.76684 5.7334 9.41617C5.7334 14.0637 9.46056 17.7908 14.1081 17.7908Z" stroke="#F27F16" stroke-width="1.5" stroke-linecap="round" stroke-linejoin="round"/>
<path d="M31.2067 11.8936V19.2452" stroke="#F27F16" stroke-width="1.5" stroke-linecap="round" stroke-linejoin="round"/>
<path d="M34.9583 15.569H27.46" stroke="#F27F16" stroke-width="1.5" stroke-linecap="round" stroke-linejoin="round"/>
</svg>
