<svg width="137" height="38" viewBox="0 0 137 38" fill="none" xmlns="http://www.w3.org/2000/svg">
<path d="M3.15569 30.6791L0 28.1185V37C0 37.5523 0.447715 38 1 38H136C136.552 38 137 37.5523 137 37V5.03614L131.784 9.06505C131.359 9.39325 130.751 9.32737 130.406 8.9158L125.574 3.14728C125.268 2.78152 124.746 2.68317 124.327 2.91237L123.462 3.38616C123.046 3.61385 122.528 3.51843 122.221 3.15763L120.083 0.648884C119.765 0.275001 119.222 0.187822 118.802 0.443178L116.97 1.55817C116.84 1.63748 116.693 1.68593 116.541 1.69979L108.194 2.46177C107.816 2.49626 107.49 2.74166 107.353 3.09533L103.317 13.4777C103.006 14.2779 101.898 14.34 101.499 13.5795L97.7439 6.41143C97.5712 6.08195 97.23 5.8755 96.8581 5.8755H93.1918C92.7306 5.8755 92.3293 6.19089 92.2202 6.63898L90.753 12.6662C90.6439 13.1143 90.2425 13.4297 89.7813 13.4297H87.5441C87.4153 13.4297 87.2876 13.4048 87.1682 13.3564L84.0366 12.0858C83.5662 11.895 83.0275 12.0868 82.7836 12.5321L78.7657 19.8678C78.4544 20.4361 77.693 20.5628 77.2144 20.1259L76.293 19.2847C75.8282 18.8604 75.0917 18.9658 74.7645 19.5034L73.9141 20.9008C73.5336 21.526 72.6325 21.5441 72.2272 20.9347L66.2776 11.9892C65.8434 11.3362 64.8609 11.4144 64.5353 12.1277L63.3065 14.8197C63.1164 15.2363 62.6677 15.4705 62.2172 15.3883L59.1286 14.8244C58.6891 14.7441 58.2496 14.9652 58.0521 15.366L54.5023 22.5672C54.345 22.8862 54.0302 23.0976 53.6754 23.1226L48.7539 23.4682C48.4494 23.4895 48.1713 23.6489 47.9988 23.9008L44.7208 28.6886C44.2715 29.3449 43.2729 29.2393 42.9707 28.5036L41.4822 24.8801C41.2121 24.2226 40.3614 24.0489 39.8552 24.548L30.4018 33.8682C29.9183 34.3448 29.1106 34.2115 28.806 33.6048L25.1888 26.4004C24.8336 25.6928 23.8361 25.6591 23.4338 26.341L21.3354 29.8985C21.2142 30.104 21.0236 30.2593 20.798 30.3366L18.3608 31.1709C17.8603 31.3422 17.313 31.0941 17.1119 30.6048L14.9661 25.3811C14.812 25.006 14.4466 24.761 14.0411 24.761H12.461C12.1418 24.761 11.8417 24.6086 11.6534 24.3508L10.1786 22.3313C9.73314 21.7213 8.79817 21.8065 8.47021 22.4869L4.68661 30.3368C4.40636 30.9183 3.65689 31.0858 3.15569 30.6791Z" fill="url(#paint0_linear_521_4246)"/>
<defs>
<linearGradient id="paint0_linear_521_4246" x1="68.5" y1="0" x2="68.5" y2="38" gradientUnits="userSpaceOnUse">
<stop offset="0.104167" stop-color="#FCE2ED" stop-opacity="0.38"/>
<stop offset="1" stop-color="#2C2C2C" stop-opacity="0"/>
</linearGradient>
</defs>
</svg>
