<svg width="210" height="86" viewBox="0 0 210 86" fill="none" xmlns="http://www.w3.org/2000/svg">
<path d="M4.716 78H6.282V72.402L10.35 65.13H8.784L5.544 71.106L2.178 65.13H0.414L4.716 72.384V78ZM14.9282 76.92C13.0202 76.92 11.8502 75.516 11.8502 73.374V73.23C11.8502 71.07 13.0382 69.666 14.9282 69.666C16.8002 69.666 18.0062 71.07 18.0062 73.248V73.374C18.0062 75.498 16.8182 76.92 14.9282 76.92ZM14.9102 78.162C17.5922 78.162 19.5542 76.2 19.5542 73.356V73.212C19.5542 70.386 17.5922 68.424 14.9282 68.424C12.2642 68.424 10.3022 70.404 10.3022 73.23V73.374C10.3022 76.128 12.2282 78.162 14.9102 78.162ZM25.0535 78.162C26.5655 78.162 27.6095 77.388 28.0415 76.506V78H29.5355V68.586H28.0415V74.292C28.0415 75.984 26.7815 76.866 25.4495 76.866C23.9735 76.866 23.2715 76.128 23.2715 74.472V68.586H21.7775V74.544C21.7775 77.136 23.1815 78.162 25.0535 78.162ZM32.555 78H34.049V72.834C34.049 70.512 35.255 69.918 37.145 69.828V68.424C35.453 68.478 34.643 69.216 34.049 70.278V68.586H32.555V78ZM48.7662 78.162C51.3582 78.162 53.0502 76.182 53.0502 73.302V73.158C53.0502 70.224 51.2322 68.424 48.7662 68.424C47.3982 68.424 46.1202 69.252 45.5802 70.17V64.086H44.0862V78H45.5802V76.452C46.1202 77.388 47.2362 78.162 48.7662 78.162ZM48.6222 76.92C46.7862 76.92 45.5262 75.786 45.5262 73.374V73.23C45.5262 70.818 46.8582 69.666 48.6042 69.666C50.1882 69.666 51.5022 70.854 51.5022 73.23V73.374C51.5022 75.66 50.4942 76.92 48.6222 76.92ZM59.2234 78.162C61.3474 78.162 62.9134 77.172 63.2374 75.282H61.7434C61.5454 76.38 60.6994 76.92 59.2414 76.92C57.3154 76.92 56.2894 75.732 56.2174 73.59H63.3094V73.104C63.3094 69.738 61.2574 68.424 59.0794 68.424C56.4874 68.424 54.6694 70.404 54.6694 73.248V73.392C54.6694 76.29 56.5594 78.162 59.2234 78.162ZM56.2714 72.384C56.5234 70.71 57.5494 69.666 59.0794 69.666C60.6274 69.666 61.6354 70.44 61.7794 72.384H56.2714ZM68.6057 78.162C70.8917 78.162 72.0617 77.01 72.0617 75.3C72.0617 73.302 70.6937 72.87 68.7497 72.51C67.0217 72.204 66.5537 71.862 66.5537 71.016C66.5537 70.206 67.2557 69.666 68.3357 69.666C69.5237 69.666 70.0997 70.116 70.3157 71.142H71.7557C71.5037 69.108 70.0457 68.424 68.3537 68.424C66.8777 68.424 65.1677 69.324 65.1677 71.07C65.1677 72.708 65.9957 73.392 68.4437 73.842C69.9017 74.112 70.6397 74.436 70.6397 75.426C70.6397 76.434 70.0097 76.92 68.5877 76.92C67.0757 76.92 66.4817 76.218 66.3737 75.102H64.9157C65.0057 77.028 66.3557 78.162 68.6057 78.162ZM77.2002 78.126C77.8122 78.126 78.1722 78.036 78.4782 77.928V76.668C78.1542 76.794 77.7942 76.866 77.3262 76.866C76.5702 76.866 76.1562 76.416 76.1562 75.498V69.846H78.3522V68.586H76.1562V66.444H74.6622V68.586H73.3122V69.846H74.6622V75.642C74.6622 77.118 75.4902 78.126 77.2002 78.126ZM89.4063 78.162C91.6743 78.162 93.3123 76.65 93.5103 74.616H92.1243C91.9623 76.146 90.7563 76.92 89.4243 76.92C87.6063 76.92 86.3463 75.696 86.3463 73.392V73.248C86.3463 71.034 87.6603 69.666 89.3703 69.666C90.6663 69.666 91.7463 70.224 91.9803 71.718H93.4563C93.1683 69.324 91.3323 68.424 89.3703 68.424C86.8503 68.424 84.7983 70.368 84.7983 73.248V73.392C84.7983 76.308 86.7783 78.162 89.4063 78.162ZM95.7659 78H97.2599V72.834C97.2599 70.512 98.4659 69.918 100.356 69.828V68.424C98.6639 68.478 97.8539 69.216 97.2599 70.278V68.586H95.7659V78ZM103.467 81.276H104.979L110.181 68.586H108.651L106.041 75.336L103.161 68.586H101.559L105.249 77.028L103.467 81.276ZM112.149 81.276H113.643V76.452C114.183 77.388 115.281 78.162 116.829 78.162C119.421 78.162 121.113 76.182 121.113 73.302V73.158C121.113 70.224 119.295 68.424 116.829 68.424C115.461 68.424 114.183 69.252 113.643 70.17V68.586H112.149V81.276ZM116.685 76.92C114.849 76.92 113.589 75.786 113.589 73.374V73.23C113.589 70.818 114.921 69.666 116.667 69.666C118.251 69.666 119.565 70.854 119.565 73.23V73.374C119.565 75.66 118.557 76.92 116.685 76.92ZM126.296 78.126C126.908 78.126 127.268 78.036 127.574 77.928V76.668C127.25 76.794 126.89 76.866 126.422 76.866C125.666 76.866 125.252 76.416 125.252 75.498V69.846H127.448V68.586H125.252V66.444H123.758V68.586H122.408V69.846H123.758V75.642C123.758 77.118 124.586 78.126 126.296 78.126ZM133.756 76.92C131.848 76.92 130.678 75.516 130.678 73.374V73.23C130.678 71.07 131.866 69.666 133.756 69.666C135.628 69.666 136.834 71.07 136.834 73.248V73.374C136.834 75.498 135.646 76.92 133.756 76.92ZM133.738 78.162C136.42 78.162 138.382 76.2 138.382 73.356V73.212C138.382 70.386 136.42 68.424 133.756 68.424C131.092 68.424 129.13 70.404 129.13 73.23V73.374C129.13 76.128 131.056 78.162 133.738 78.162ZM145.459 81.276H146.953V76.452C147.493 77.388 148.591 78.162 150.139 78.162C152.731 78.162 154.423 76.182 154.423 73.302V73.158C154.423 70.224 152.605 68.424 150.139 68.424C148.771 68.424 147.493 69.252 146.953 70.17V68.586H145.459V81.276ZM149.995 76.92C148.159 76.92 146.899 75.786 146.899 73.374V73.23C146.899 70.818 148.231 69.666 149.977 69.666C151.561 69.666 152.875 70.854 152.875 73.23V73.374C152.875 75.66 151.867 76.92 149.995 76.92ZM159.102 78.162C160.488 78.162 161.334 77.694 162.036 76.812V78H163.53V71.79C163.53 69.162 161.892 68.424 160.092 68.424C158.274 68.424 156.564 69.216 156.366 71.358H157.86C158.004 70.206 158.724 69.666 160.02 69.666C161.46 69.666 162.036 70.296 162.036 71.79V72.474H160.686C158.274 72.474 155.97 73.212 155.97 75.39C155.97 77.316 157.356 78.162 159.102 78.162ZM159.246 76.974C157.932 76.974 157.464 76.362 157.464 75.39C157.464 74.004 158.85 73.536 160.74 73.536H162.036V74.706C162.036 76.164 160.83 76.974 159.246 76.974ZM166.465 78H167.959V72.834C167.959 70.512 169.165 69.918 171.055 69.828V68.424C169.363 68.478 168.553 69.216 167.959 70.278V68.586H166.465V78ZM176.183 78.126C176.795 78.126 177.155 78.036 177.461 77.928V76.668C177.137 76.794 176.777 76.866 176.309 76.866C175.553 76.866 175.139 76.416 175.139 75.498V69.846H177.335V68.586H175.139V66.444H173.645V68.586H172.295V69.846H173.645V75.642C173.645 77.118 174.473 78.126 176.183 78.126ZM179.719 78H181.213V72.294C181.213 70.602 182.455 69.72 183.841 69.72C185.353 69.72 186.055 70.458 186.055 72.114V78H187.549V72.222C187.549 69.486 186.181 68.424 184.237 68.424C182.689 68.424 181.645 69.198 181.213 70.08V68.586H179.719V78ZM194.329 78.162C196.453 78.162 198.019 77.172 198.343 75.282H196.849C196.651 76.38 195.805 76.92 194.347 76.92C192.421 76.92 191.395 75.732 191.323 73.59H198.415V73.104C198.415 69.738 196.363 68.424 194.185 68.424C191.593 68.424 189.775 70.404 189.775 73.248V73.392C189.775 76.29 191.665 78.162 194.329 78.162ZM191.377 72.384C191.629 70.71 192.655 69.666 194.185 69.666C195.733 69.666 196.741 70.44 196.885 72.384H191.377ZM200.707 78H202.201V72.834C202.201 70.512 203.407 69.918 205.297 69.828V68.424C203.605 68.478 202.795 69.216 202.201 70.278V68.586H200.707V78ZM207.429 78.09C208.059 78.09 208.581 77.586 208.581 76.938C208.581 76.29 208.059 75.786 207.429 75.786C206.799 75.786 206.277 76.29 206.277 76.938C206.277 77.586 206.799 78.09 207.429 78.09Z" fill="white"/>
<path d="M33.6732 44.6839C30.0804 46.4092 26.1079 47.1925 22.1292 46.96C18.1505 46.7275 14.2962 45.4869 10.9289 43.3549C7.56156 41.2229 4.79179 38.2695 2.88003 34.7724C0.968268 31.2753 -0.022671 27.3495 0.000393513 23.364C0.023458 19.3785 1.05977 15.4644 3.01188 11.9897C4.96398 8.51499 7.76775 5.59383 11.1595 3.50093C14.5513 1.40803 18.4197 0.212139 22.4008 0.0257206C26.382 -0.160698 30.3451 0.668479 33.9177 2.43528L28.8343 12.7138C27.005 11.8091 24.9757 11.3846 22.9372 11.48C20.8986 11.5755 18.9178 12.1878 17.1811 13.2595C15.4443 14.3312 14.0087 15.8269 13.0091 17.6062C12.0095 19.3854 11.4789 21.3896 11.4671 23.4304C11.4552 25.4711 11.9627 27.4813 12.9416 29.272C13.9205 31.0627 15.3387 32.575 17.063 33.6667C18.7872 34.7584 20.7608 35.3936 22.7981 35.5127C24.8354 35.6317 26.8695 35.2306 28.7092 34.3472L33.6732 44.6839Z" fill="url(#paint0_linear_588_1717)"/>
<ellipse cx="23.2205" cy="23.2205" rx="8.1131" ry="8.1131" fill="#11CABE"/>
<path d="M54.506 30.342C53.318 30.342 52.298 30.138 51.446 29.73C50.594 29.31 49.898 28.764 49.358 28.092C48.818 27.408 48.416 26.676 48.152 25.896C47.9 25.104 47.774 24.336 47.774 23.592V23.196C47.774 22.38 47.906 21.576 48.17 20.784C48.434 19.98 48.836 19.254 49.376 18.606C49.928 17.958 50.618 17.442 51.446 17.058C52.286 16.662 53.276 16.464 54.416 16.464C55.604 16.464 56.654 16.686 57.566 17.13C58.478 17.574 59.204 18.192 59.744 18.984C60.296 19.764 60.62 20.682 60.716 21.738H57.746C57.662 21.21 57.47 20.76 57.17 20.388C56.87 20.016 56.48 19.728 56 19.524C55.532 19.32 55.004 19.218 54.416 19.218C53.828 19.218 53.306 19.32 52.85 19.524C52.394 19.728 52.01 20.016 51.698 20.388C51.398 20.76 51.164 21.204 50.996 21.72C50.84 22.224 50.762 22.788 50.762 23.412C50.762 24.024 50.84 24.588 50.996 25.104C51.164 25.608 51.404 26.052 51.716 26.436C52.04 26.808 52.436 27.096 52.904 27.3C53.372 27.492 53.906 27.588 54.506 27.588C55.418 27.588 56.186 27.366 56.81 26.922C57.446 26.478 57.83 25.866 57.962 25.086H60.914C60.806 26.046 60.482 26.928 59.942 27.732C59.414 28.524 58.688 29.16 57.764 29.64C56.852 30.108 55.766 30.342 54.506 30.342ZM62.7105 30V20.136H64.9965V24.366H64.9425C64.9425 22.974 65.2365 21.9 65.8245 21.144C66.4245 20.388 67.2885 20.01 68.4165 20.01H68.7945V22.494H68.0745C67.2825 22.494 66.6705 22.71 66.2385 23.142C65.8065 23.562 65.5905 24.174 65.5905 24.978V30H62.7105ZM70.4599 33.906V31.458H72.5119C72.8239 31.458 73.0879 31.416 73.3039 31.332C73.5199 31.26 73.6939 31.134 73.8259 30.954C73.9579 30.774 74.0659 30.528 74.1499 30.216L76.5799 20.136H79.3159L76.5619 30.792C76.3699 31.56 76.0999 32.172 75.7519 32.628C75.4159 33.084 74.9599 33.408 74.3839 33.6C73.8199 33.804 73.0999 33.906 72.2239 33.906H70.4599ZM73.5559 29.784V27.534H75.6439V29.784H73.5559ZM72.3679 29.784L69.3439 20.136H72.2419L75.1039 29.784H72.3679ZM80.8335 33.6V20.136H83.1195V24.402L82.8135 24.384C82.8615 23.4 83.0655 22.572 83.4255 21.9C83.7855 21.216 84.2715 20.706 84.8835 20.37C85.4955 20.022 86.1855 19.848 86.9535 19.848C87.6375 19.848 88.2555 19.974 88.8075 20.226C89.3715 20.478 89.8515 20.832 90.2475 21.288C90.6555 21.732 90.9615 22.26 91.1655 22.872C91.3815 23.472 91.4895 24.132 91.4895 24.852V25.266C91.4895 25.974 91.3875 26.64 91.1835 27.264C90.9795 27.876 90.6795 28.41 90.2835 28.866C89.8995 29.322 89.4255 29.682 88.8615 29.946C88.3095 30.198 87.6735 30.324 86.9535 30.324C86.2095 30.324 85.5375 30.174 84.9375 29.874C84.3495 29.562 83.8755 29.094 83.5155 28.47C83.1555 27.834 82.9575 27.03 82.9215 26.058L83.7135 27.138V33.6H80.8335ZM86.1435 27.912C86.6355 27.912 87.0615 27.792 87.4215 27.552C87.7935 27.312 88.0815 26.976 88.2855 26.544C88.4895 26.112 88.5915 25.614 88.5915 25.05C88.5915 24.486 88.4895 23.994 88.2855 23.574C88.0815 23.154 87.7995 22.83 87.4395 22.602C87.0795 22.362 86.6475 22.242 86.1435 22.242C85.7115 22.242 85.3035 22.344 84.9195 22.548C84.5355 22.752 84.2235 23.046 83.9835 23.43C83.7555 23.802 83.6415 24.258 83.6415 24.798V25.464C83.6415 25.98 83.7615 26.424 84.0015 26.796C84.2535 27.156 84.5715 27.432 84.9555 27.624C85.3395 27.816 85.7355 27.912 86.1435 27.912ZM97.9718 30.126C96.9758 30.126 96.1718 30.006 95.5598 29.766C94.9478 29.514 94.4978 29.1 94.2098 28.524C93.9338 27.936 93.7958 27.144 93.7958 26.148V17.472H96.4778V26.256C96.4778 26.724 96.5978 27.084 96.8378 27.336C97.0898 27.576 97.4438 27.696 97.8998 27.696H99.3578V30.126H97.9718ZM92.3018 22.242V20.136H99.3578V22.242H92.3018ZM106.065 30.342C105.201 30.342 104.433 30.21 103.761 29.946C103.089 29.67 102.519 29.298 102.051 28.83C101.595 28.362 101.247 27.828 101.007 27.228C100.767 26.616 100.647 25.974 100.647 25.302V24.888C100.647 24.204 100.767 23.556 101.007 22.944C101.259 22.32 101.619 21.774 102.087 21.306C102.567 20.838 103.143 20.472 103.815 20.208C104.487 19.932 105.237 19.794 106.065 19.794C106.917 19.794 107.673 19.932 108.333 20.208C109.005 20.472 109.575 20.838 110.043 21.306C110.511 21.774 110.871 22.32 111.123 22.944C111.375 23.556 111.501 24.204 111.501 24.888V25.302C111.501 25.974 111.381 26.616 111.141 27.228C110.901 27.828 110.547 28.362 110.079 28.83C109.623 29.298 109.059 29.67 108.387 29.946C107.715 30.21 106.941 30.342 106.065 30.342ZM106.065 27.912C106.629 27.912 107.097 27.792 107.469 27.552C107.841 27.312 108.123 26.976 108.315 26.544C108.519 26.112 108.621 25.632 108.621 25.104C108.621 24.54 108.519 24.048 108.315 23.628C108.111 23.196 107.817 22.854 107.433 22.602C107.061 22.35 106.605 22.224 106.065 22.224C105.537 22.224 105.081 22.35 104.697 22.602C104.313 22.854 104.019 23.196 103.815 23.628C103.623 24.048 103.527 24.54 103.527 25.104C103.527 25.632 103.623 26.112 103.815 26.544C104.007 26.976 104.295 27.312 104.679 27.552C105.063 27.792 105.525 27.912 106.065 27.912ZM113.637 30V16.86H116.535V30H113.637ZM112.467 18.984V16.86H116.535V18.984H112.467ZM119.315 30V16.86H122.213V30H119.315ZM118.145 18.984V16.86H122.213V18.984H118.145ZM124.759 33.906V31.458H126.811C127.123 31.458 127.387 31.416 127.603 31.332C127.819 31.26 127.993 31.134 128.125 30.954C128.257 30.774 128.365 30.528 128.449 30.216L130.879 20.136H133.615L130.861 30.792C130.669 31.56 130.399 32.172 130.051 32.628C129.715 33.084 129.259 33.408 128.683 33.6C128.119 33.804 127.399 33.906 126.523 33.906H124.759ZM127.855 29.784V27.534H129.943V29.784H127.855ZM126.667 29.784L123.643 20.136H126.541L129.403 29.784H126.667Z" fill="white"/>
<path d="M134.682 30V26.778H137.85V30H134.682Z" fill="#1A82FF"/>
<defs>
<linearGradient id="paint0_linear_588_1717" x1="48.0967" y1="12.3474" x2="-1.68006" y2="16.2148" gradientUnits="userSpaceOnUse">
<stop stop-color="#246CF9"/>
<stop offset="0.0001" stop-color="#1E68F6"/>
<stop offset="1" stop-color="#0047D0"/>
</linearGradient>
</defs>
</svg>
