<svg width="40" height="31" viewBox="0 0 40 31" fill="none" xmlns="http://www.w3.org/2000/svg">
<path d="M30.2568 14.0417C33.1944 14.0417 35.5775 11.6604 35.5775 8.72277C35.5775 5.78516 33.1944 3.40381 30.2568 3.40381" stroke="#BD47FB" stroke-width="1.5" stroke-linecap="round" stroke-linejoin="round"/>
<path d="M32.7031 19.8223C33.5804 19.8828 34.4526 20.0071 35.3113 20.2004C36.5045 20.434 37.9397 20.923 38.4506 21.9935C38.7767 22.6792 38.7767 23.4775 38.4506 24.1648C37.9414 25.2353 36.5045 25.7227 35.3113 25.9681" stroke="#BD47FB" stroke-width="1.5" stroke-linecap="round" stroke-linejoin="round"/>
<path d="M9.53158 14.0417C6.59397 14.0417 4.21094 11.6604 4.21094 8.72277C4.21094 5.78516 6.59397 3.40381 9.53158 3.40381" stroke="#BD47FB" stroke-width="1.5" stroke-linecap="round" stroke-linejoin="round"/>
<path d="M7.08535 19.8223C6.2081 19.8828 5.33589 20.0071 4.47713 20.2004C3.28393 20.434 1.84874 20.923 1.33953 21.9935C1.01182 22.6792 1.01182 23.4775 1.33953 24.1648C1.84706 25.2353 3.28393 25.7227 4.47713 25.9681" stroke="#BD47FB" stroke-width="1.5" stroke-linecap="round" stroke-linejoin="round"/>
<path fill-rule="evenodd" clip-rule="evenodd" d="M19.8855 20.9678C25.8381 20.9678 30.9234 21.8686 30.9234 25.4733C30.9234 29.0765 25.8717 30.0108 19.8855 30.0108C13.9313 30.0108 8.84766 29.1101 8.84766 25.5053C8.84766 21.9005 13.8994 20.9678 19.8855 20.9678Z" stroke="#BD47FB" stroke-width="1.5" stroke-linecap="round" stroke-linejoin="round"/>
<path fill-rule="evenodd" clip-rule="evenodd" d="M19.886 15.8258C15.9602 15.8258 12.8125 12.6782 12.8125 8.7507C12.8125 4.82493 15.9602 1.67725 19.886 1.67725C23.8117 1.67725 26.9594 4.82493 26.9594 8.7507C26.9594 12.6782 23.8117 15.8258 19.886 15.8258Z" stroke="#BD47FB" stroke-width="1.5" stroke-linecap="round" stroke-linejoin="round"/>
</svg>
