<svg width="30" height="37" viewBox="0 0 30 37" fill="none" xmlns="http://www.w3.org/2000/svg">
<path fill-rule="evenodd" clip-rule="evenodd" d="M27.5862 5.39378C28.3873 5.67428 28.9227 6.42961 28.9227 7.27844V19.6956C28.9227 23.1661 27.6613 26.4789 25.4338 29.0456C24.3137 30.3381 22.8965 31.3446 21.3913 32.1586L14.8683 35.6823L8.33433 32.1568C6.82733 31.3428 5.40833 30.3381 4.28633 29.0438C2.05699 26.4771 0.791992 23.1624 0.791992 19.6883V7.27844C0.791992 6.42961 1.32733 5.67428 2.12849 5.39378L14.1955 1.15328C14.6245 1.00294 15.092 1.00294 15.5192 1.15328L27.5862 5.39378Z" stroke="#11CABE" stroke-width="1.5" stroke-linecap="round" stroke-linejoin="round"/>
<path d="M10.0918 17.8492L13.5605 21.3197L20.7068 14.1733" stroke="#11CABE" stroke-width="1.5" stroke-linecap="round" stroke-linejoin="round"/>
</svg>
